# xmcd
#
# Track frame offsets:
#	150
#	19911
#	22226
#	36965
#	53104
#	73352
#	75609
#	93844
#	114730
#	118022
#	136136
#	147140
#	166124
#	170623
#	188922
#	208465
#
# Disc length: 3044 seconds
#
# Revision: 0
# Processed by: cddbd v1.5PL3 Copyright (c) Steve Scherf et al.
# Submitted via: dBpowerAMP V4.0
#
DISCID=ea0be210
DTITLE=anggun - anggun
DYEAR=1900
DGENRE=Pop
TTITLE0=snow on the sahara
TTITLE1=le depart
TTITLE2=over theirwalls
TTITLE3=on the breath of an angel
TTITLE4=a rose in the wind
TTITLE5=gita
TTITLE6=memory of your shores
TTITLE7=my sensual mind
TTITLE8=blanca
TTITLE9=valpalso
TTITLE10=solamnya
TTITLE11=by the moon
TTITLE12=pluies
TTITLE13=dream of me
TTITLE14=secret of the sea
TTITLE15=life on mars
EXTD='Anggun','1',[ste] [B]\n
EXTT0=
EXTT1=
EXTT2=
EXTT3=
EXTT4=
EXTT5=
EXTT6=
EXTT7=
EXTT8=
EXTT9=
EXTT10=
EXTT11=
EXTT12=
EXTT13=
EXTT14=
EXTT15=
PLAYORDER=
